<svg id="Capa_1" enable-background="new 0 0 512 512" height="512" viewBox="0 0 512 512" width="512" xmlns="http://www.w3.org/2000/svg"><g><g><path d="m0 256c0 43.79 11 85.02 30.39 121.07l225.61 49.67 225.61-49.67c19.39-36.05 30.39-77.28 30.39-121.07 0-46.63-12.47-90.34-34.26-128-41.698 72.091-399.22 76.52-443.48 0-21.79 37.66-34.26 81.37-34.26 128z" fill="#eec036"/><path d="m34.26 128c44.26 76.52 126.99 128 221.74 128s177.48-51.48 221.74-128c-.01-.02-.03-.05-.04-.07-44.27-76.48-126.98-127.93-221.7-127.93s-177.43 51.45-221.7 127.93c-.01.02-.03.05-.04.07z" fill="#f5dd6e"/><path d="m30.39 377.07c43.19 80.32 128.02 134.93 225.61 134.93s182.42-54.61 225.61-134.93z" fill="#de8051"/></g><g><path d="m244.404 90.087h18.396v101.25h-18.396z" fill="#de8051"/><path d="m326.033 164.997v20.76c0 20.01-8.1 38.11-21.21 51.22s-31.21 21.22-51.22 21.22c-40 0-72.43-32.43-72.43-72.44v-20.76c0-10 4.06-19.05 10.61-25.61 6.55-6.55 15.61-10.6 25.61-10.6 20 0 36.21 16.21 36.21 36.21 0-20 16.22-36.21 36.22-36.21s36.21 16.21 36.21 36.21z" fill="#db6870"/><path d="m326.033 164.997v20.76c0 20.01-8.1 38.11-21.21 51.22s-31.21 21.22-51.22 21.22v-93.2c0-20 16.22-36.21 36.22-36.21s36.21 16.21 36.21 36.21z" fill="#db504f"/><path d="m316.683 191.337c-21.11 5.64-44.56.19-61.12-16.37-16.55-16.56-22-40.01-16.37-61.11 21.11-5.64 44.56-.19 61.12 16.37s22 40.01 16.37 61.11z" fill="#a9eb58"/><path d="m316.683 191.337-77.49-77.48c21.11-5.64 44.56-.19 61.12 16.37s22 40.01 16.37 61.11z" fill="#79ce8b"/></g><g><path d="m371.959 351.816h-189.654c-25.99 0-47.059-21.069-47.059-47.059 0-25.99 21.069-47.059 47.059-47.059h189.654z" fill="#9febff"/><path d="m253.603 257.697h118.357v94.118h-118.357z" fill="#70c5e9"/><path d="m371.957 288.308v32.885h-189.653c-9.059 0-16.442-7.365-16.442-16.442 0-9.059 7.384-16.443 16.442-16.443z" fill="#e8ebf7"/><path d="m253.601 288.308h118.356v32.885h-118.356z" fill="#daddee"/></g><g><path d="m416.982 445.434h-279.7c-25.99 0-47.059-21.069-47.059-47.059 0-25.99 21.069-47.059 47.059-47.059h279.7z" fill="#a9eb58"/><path d="m253.603 351.316h163.379v94.118h-163.379z" fill="#79ce8b"/><path d="m416.98 381.927v32.885h-279.699c-9.059 0-16.442-7.365-16.442-16.442 0-9.059 7.384-16.442 16.442-16.442h279.699z" fill="#e8ebf7"/><path d="m253.601 381.927h163.378v32.885h-163.378z" fill="#daddee"/></g></g></svg>